<svg id="Layer_1" data-name="Layer 1" xmlns="http://www.w3.org/2000/svg" viewBox="0 0 151.29 64.19"><defs><style>.cls-1{fill:#926f49;}</style></defs><title>cachevalleybank_logo</title><path class="cls-1" d="M73.34,56.68v-.13c2.29-.4,4.22-1.66,4.22-3.88,0-3.14-2.77-4.67-6.44-4.67h-8v.84l2.48.53v5.21A2.75,2.75,0,0,1,65.18,56a2.19,2.19,0,0,1-1,.9v.27a2.19,2.19,0,0,1,1,.9,2.75,2.75,0,0,1,.38,1.46v5.21l-2.48.53v.84h8.86c3.8,0,6.62-1.69,6.62-4.83,0-2.9-2.16-4.3-5.22-4.64m-4.75-7.44h2.19c2.85,0,3.75.69,3.75,3.43s-.87,3.46-4.2,3.46H68.59Zm3,15.67h-3V57.23h2.64c3.19,0,4.14,1.37,4.14,4.09,0,3-1,3.59-3.77,3.59" transform="translate(-1.96 -2.14)"/><path class="cls-1" d="M87,54.89l2.14,5.28H84.91Zm.21-3-5.88,13-2,.42v.82h5.75v-.82L83,64.91l1.45-3.59h5.2l1.45,3.59L89,65.33v.82h6.83v-.82l-1.85-.42-5.67-13Z" transform="translate(-1.96 -2.14)"/><polygon class="cls-1" points="105.55 49.92 105.55 50.76 107.74 51.19 108.27 59.55 100.91 49.92 95.74 49.92 95.74 50.76 97.9 51.19 97.9 62.74 95.74 63.16 95.74 64.01 101.75 64.01 101.75 63.16 99.51 62.74 98.91 51.79 108.59 64.19 109.33 64.19 109.33 51.19 111.36 50.76 111.36 49.92 105.55 49.92"/><polygon class="cls-1" points="122.46 49.92 122.46 50.76 124.04 51.16 120.09 56.49 118.27 56.49 118.27 51.19 120.06 50.76 120.06 49.92 113.39 49.92 113.39 50.76 115.55 51.19 115.55 62.74 113.39 63.16 113.39 64.01 120.06 64.01 120.06 63.16 118.27 62.74 118.27 57.57 119.93 57.57 123.78 62.74 122.36 63.16 122.36 64.01 128.45 64.01 128.45 63.16 126.92 62.74 121.7 55.99 126.02 51.16 127.76 50.76 127.76 49.92 122.46 49.92"/><path class="cls-1" d="M86.77,43.49h6.83v-.82l-1.85-.42-5.67-13h-1l-5.88,13-2,.42v.82H82.9v-.82l-2.08-.42,1.45-3.59h5.2l1.45,3.59-2.14.42Zm-4-6,2.12-5.28L87,37.5Z" transform="translate(-1.96 -2.14)"/><polygon class="cls-1" points="102.92 40.02 98.44 40.39 98.44 28.52 100.68 28.1 100.68 27.25 93.56 27.25 93.56 28.1 95.72 28.52 95.72 40.08 93.56 40.5 93.56 41.34 105.16 41.34 106.01 35.83 105.35 35.64 102.92 40.02"/><polygon class="cls-1" points="107.61 40.5 107.61 41.34 119.21 41.34 120.06 35.83 119.4 35.64 116.97 40.02 112.48 40.39 112.48 28.52 114.73 28.1 114.73 27.25 107.61 27.25 107.61 28.1 109.77 28.52 109.77 40.08 107.61 40.5"/><polygon class="cls-1" points="121.67 40.52 121.67 41.34 134.41 41.34 135.09 36.2 134.46 35.99 132.22 40.1 126.52 40.42 126.52 34.62 129.37 34.77 130.24 36.78 130.93 36.78 130.93 31.34 130.24 31.34 129.37 33.48 126.52 33.67 126.52 28.13 131.48 28.5 133.59 31.95 134.15 31.74 133.59 27.25 121.67 27.25 121.67 28.07 123.83 28.5 123.83 40.1 121.67 40.52"/><polygon class="cls-1" points="145.85 27.25 145.85 28.1 147.78 28.52 144.61 34.51 141.1 28.63 142.95 28.1 142.95 27.25 136.25 27.25 136.25 28.1 137.99 28.63 142.53 35.64 142.53 40.08 140.31 40.5 140.31 41.34 147.49 41.34 147.49 40.5 145.25 40.08 145.25 35.46 149.52 28.52 151.29 28.1 151.29 27.25 145.85 27.25"/><path class="cls-1" d="M74.21,42.64l-2.34-.46L78.4,26.45l2-.53v-.84H74.16v.84l2.45.53L71.7,40.09,66.64,26.45l2.22-.53v-.84h-7.6v.84l2.08.53,2.32,5.8h0A1.69,1.69,0,0,1,65,34v.27a2.72,2.72,0,0,1,2.1,1.62l2.5,6.26-2.19.49v.84h6.78Z" transform="translate(-1.96 -2.14)"/><path class="cls-1" d="M85.61,19.74l-2.08-.42L85,15.73h5.2l1.45,3.59-2.14.42v.82h6.83v-.82l-1.85-.42-5.67-13h-1l-5.88,13-2,.42v.82h5.75Zm2-10.45,2.14,5.28H85.44Z" transform="translate(-1.96 -2.14)"/><path class="cls-1" d="M103.91,20.72a6,6,0,0,0,5.46-3.19l-.77-.42a5.25,5.25,0,0,1-4.33,2.51c-2.77,0-4.19-1.56-4.19-5.88,0-4.83,1.35-6.36,3.75-6.36,1.87,0,2.82,1,4.67,4.56l.61-.16-.61-5.3h-.74l-.45,1a5.52,5.52,0,0,0-3.48-1.13A7.08,7.08,0,0,0,97,13.51a7,7,0,0,0,6.89,7.2" transform="translate(-1.96 -2.14)"/><polygon class="cls-1" points="140.83 13.27 140.2 13.06 137.96 17.18 132.26 17.49 132.26 11.69 135.11 11.85 135.98 13.85 136.66 13.85 136.66 8.42 135.98 8.42 135.11 10.55 132.26 10.74 132.26 5.2 137.22 5.57 139.33 9.02 139.88 8.81 139.33 4.33 127.4 4.33 127.4 5.14 129.56 5.57 129.56 17.18 127.4 17.6 127.4 18.41 140.14 18.41 140.83 13.27"/><path class="cls-1" d="M63.64,13.24a8.74,8.74,0,0,0,8.65,7.48,7.61,7.61,0,0,0,7-4.06l-.82-.58a6.82,6.82,0,0,1-5.88,3.35c-3.72,0-5.7-1.87-5.7-7.73,0-6.7,1.93-8.23,5.38-8.23,2.27,0,3.67.9,6,5.54l.61-.16-.63-6.49h-.66l-.69,1.37a7.4,7.4,0,0,0-4.64-1.58,8.94,8.94,0,0,0-8.61,7.37,2.56,2.56,0,0,1-1.35,1.78v.27a2.55,2.55,0,0,1,1.31,1.67" transform="translate(-1.96 -2.14)"/><polygon class="cls-1" points="125.26 5.17 125.26 4.33 118.48 4.33 118.48 5.17 120.38 5.59 120.38 10.79 114.05 10.79 114.05 5.59 115.95 5.17 115.95 4.33 109.17 4.33 109.17 5.17 111.33 5.59 111.33 17.15 109.17 17.57 109.17 18.41 115.95 18.41 115.95 17.57 114.05 17.15 114.05 11.95 120.38 11.95 120.38 17.15 118.48 17.57 118.48 18.41 125.26 18.41 125.26 17.57 123.1 17.15 123.1 5.59 125.26 5.17"/><path class="cls-1" d="M48.91,8.44v-2H33.27v2.1l5.4,1.08-.7,3.4A32.63,32.63,0,0,0,29.35,12a25.09,25.09,0,0,0-9.72,1.87l-.89-4.38,5.54-1.11V6.47H7.42V8.38l5.07,1.11L14.26,17a24.88,24.88,0,0,0-8.63,13.4C4.43,34.42,2,35.75,2,35.75v1.37s2.69,1.28,4,5.65A25.94,25.94,0,0,0,22.33,59.33l-1.06-4.48c-6.12-3.18-10.84-9.48-10.84-18.61,0-7.11,1.88-12,4.78-15.19l9.91,42-6.08,1.24v1.91H37.54V64.24L31.46,63,32,60.57a23.33,23.33,0,0,0,16.93-9L46.5,50a22.22,22.22,0,0,1-13.78,7.14l7.47-34.71A2.82,2.82,0,0,0,39,19.49a11.9,11.9,0,0,0-2.16-1.15l-8.21,40.1L20.33,17.31a24.09,24.09,0,0,1,10.13-2c7.42,0,14.44,3.35,16.23,14.14h2.22V12.71l-2.17.47-.8,3.39a35.09,35.09,0,0,0-4-2.13l1-4.71Zm-31.42,46h0c.28.21.58.43.89.64l.19.13h-1c-.32-.2-.64-.42-1-.64l-.18-.13Zm-9-27.12.09-.21c.06-.14.12-.29.19-.43l0,0h1.41l0,.09-.07.21c0,.14-.1.28-.14.43v0H8.42ZM7.6,29.66c.06-.2.13-.4.19-.59l0-.09H9.52l0,.08-.06.26c0,.12-.06.25-.09.38v.06H7.57ZM6.87,32c.08-.2.15-.42.22-.63l0,0h2v.08c0,.21-.06.42-.08.64v.06H6.84Zm-1.17,2.3c.12-.19.25-.4.38-.63l0,0H8.84v.07c0,.19,0,.38,0,.56v.14H5.64Zm-1.5,2.41-.05-.05-.06-.06-.19-.17.18-.17.3-.29,0,0H8.76V36s0,.08,0,.12,0,.08,0,.13,0,.15,0,.22,0,.11,0,.17v.07H4.23ZM6.09,39c-.14-.23-.28-.44-.42-.63l-.08-.11H8.83v.06c0,.21,0,.43.06.64V39H6.11Zm1.12,2.3c-.07-.2-.15-.39-.23-.57l-.07-.16h2.2v.06c0,.19.07.39.11.58l0,.14h-2ZM8,43.6c-.08-.21-.16-.43-.24-.64l0-.09H9.63l.06.23c0,.15.08.3.13.45l0,.09H8Zm6.82,8.53,0,0c.2.21.42.42.63.62l.14.14H14.54l0,0c-.24-.21-.47-.43-.69-.64l-.12-.12Zm-1.9-2.29c.17.23.33.45.48.64l.09.11H12.25l0,0-.53-.64-.09-.11h1.3Zm-1.45-2.31.32.56.11.18H10.48l0,0c-.15-.21-.29-.43-.42-.64L10,47.5h1.5Zm-.87-1.82.11.25H9.1l0,0-.32-.64,0-.1h1.69l0,0C10.48,45.4,10.55,45.56,10.62,45.72ZM11,24.44c-.07.16-.14.32-.21.48l-.08.2H9.55L9.63,25l.35-.6,0,0h1.08Zm1.22-2.23c-.12.18-.24.37-.35.56l0,0H11l.08-.11.48-.64,0,0h.76ZM14.08,8.9l-.18-.75h2.85l.15.75Zm.36,1.54h2.78l.16.78H14.63Zm.73,3.09L15,12.76h2.7l.16.78Zm.36,1.54h2.62l.16.78H15.72Zm.55,2.32h2.54l.16.78H16.27Zm.55,2.32H19.1l.16.78H16.82ZM17.18,22h2.39l.16.78H17.36Zm.55,2.32H20l.16.78H17.91ZM28.17,64.47h-1L27,63.72h1Zm-.46-2.29h-1l-.18-.78h1.07Zm-.47-2.32H26.12l-.18-.78h1.15Zm-.47-2.32h-1.2l-.18-.78h1.22Zm-.47-2.32H25l-.18-.78h1.3Zm-.47-2.32H24.48l-.18-.78h1.38Zm-.47-2.32H23.93l-.18-.78H25.2Zm-.47-2.32H23.38l-.18-.78h1.53ZM24.42,46H22.84l-.18-.78h1.61ZM24,43.65H22.29l-.18-.78H23.8Zm-.47-2.32H21.74l-.18-.78h1.77ZM23,39H21.19L21,38.24h1.84Zm-.47-2.32h-1.9l-.18-.78h1.92Zm-.47-2.32h-2l-.18-.78h2Zm-.47-2.32H19.55l-.18-.78h2.08Zm-.47-2.32H19L18.82,29H21Zm-.63-3.09.16.78H18.46l-.18-.78ZM47.22,22.8h-.85l0,0c-.09-.19-.2-.39-.33-.64L46,22h1.25Zm0-3.09v.78H45l0,0c-.15-.21-.3-.41-.47-.64l-.09-.11ZM44,17.39h0l1.06.62.25.15H43l0,0c-.22-.21-.45-.43-.69-.63l-.14-.12Z" transform="translate(-1.96 -2.14)"/></svg>